<?xml version="1.0" encoding="UTF-8" standalone="no"?><svg xmlns="http://www.w3.org/2000/svg" xmlns:xlink="http://www.w3.org/1999/xlink" clip-rule="evenodd" stroke-miterlimit="10" viewBox="0 0 1024 768"><desc>SVG generated by Keynote</desc><defs></defs><g transform="matrix(1.00, 0.00, -0.00, -1.00, 0.0, 768.0)"><path d="M 0.0 768.0 L 1024.0 768.0 L 1024.0 0.0 L 0.0 0.0 Z M 0.0 768.0 " fill="#000000"></path><image xlink:href="../../AD295036-4F77-4EAD-B17A-01689EC86FA5/assets/7AA8CFFB57D9A48D3F3F33AC60E61021.png" width="1280.00" height="720.00" transform="matrix(1.07, 0.00, -0.00, -1.07, -170.7, 768.7)"></image><image xlink:href="../../AD295036-4F77-4EAD-B17A-01689EC86FA5/assets/C3F72C681A47E6C2187D53B7E0BA37E2.png" width="5689.00" height="505.00" transform="matrix(0.24, 0.00, -0.00, -0.24, -170.7, 0.7)"></image><g opacity="0.50"><g><clipPath id="clip0x608000ea4ec0"><path d="M 0.0 768.0 L 140.0 768.0 L 140.0 0.0 L 0.0 0.0 Z M 0.0 768.0 "></path></clipPath><g clip-path="url(#clip0x608000ea4ec0)"><g><clipPath id="clip0x608000ea4fe0"><path d="M 0.0 0.0 L 142.0 0.0 L 142.0 768.0 L 0.0 768.0 Z M 0.0 0.0 "></path></clipPath><g clip-path="url(#clip0x608000ea4fe0)"><image xlink:href="../../0A5579FF-1430-4701-9ABB-6933D50FD1C8/assets/AEFE3146F0C36D4704EB2055BACC19DB.jpeg" width="1024.00" height="768.00" transform="matrix(1.00, 0.00, -0.00, -1.00, 0.0, 768.0)"></image></g></g></g></g></g></g></svg>