<?xml version="1.0" encoding="UTF-8" standalone="no"?><svg xmlns="http://www.w3.org/2000/svg" xmlns:xlink="http://www.w3.org/1999/xlink" clip-rule="evenodd" stroke-miterlimit="10" viewBox="0 0 852 153"><desc>SVG generated by Keynote</desc><defs></defs><g transform="matrix(1.00, 0.00, -0.00, -1.00, 0.0, 153.0)"><text xml:space="preserve" font-family="HelveticaLTStd-Blk,Helvetica LT Std" font-weight="bold" font-size="71.2" fill="#D5D5D5" transform="matrix(1.00, 0.00, -0.00, -1.00, 0.3, 99.3)">C</text><text xml:space="preserve" font-family="HelveticaLTStd-Blk,Helvetica LT Std" font-weight="bold" font-size="71.2" fill="#D5D5D5" transform="matrix(1.00, 0.00, -0.00, -1.00, 55.7, 99.3)">l</text><text xml:space="preserve" font-family="HelveticaLTStd-Blk,Helvetica LT Std" font-weight="bold" font-size="71.2" fill="#D5D5D5" transform="matrix(1.00, 0.00, -0.00, -1.00, 79.4, 99.3)">e</text><text xml:space="preserve" font-family="HelveticaLTStd-Blk,Helvetica LT Std" font-weight="bold" font-size="71.2" fill="#D5D5D5" transform="matrix(1.00, 0.00, -0.00, -1.00, 126.9, 99.3)">v</text><text xml:space="preserve" font-family="HelveticaLTStd-Blk,Helvetica LT Std" font-weight="bold" font-size="71.2" fill="#D5D5D5" transform="matrix(1.00, 0.00, -0.00, -1.00, 170.4, 99.3)">e</text><text xml:space="preserve" font-family="HelveticaLTStd-Blk,Helvetica LT Std" font-weight="bold" font-size="71.2" fill="#D5D5D5" transform="matrix(1.00, 0.00, -0.00, -1.00, 217.9, 99.3)">l</text><text xml:space="preserve" font-family="HelveticaLTStd-Blk,Helvetica LT Std" font-weight="bold" font-size="71.2" fill="#D5D5D5" transform="matrix(1.00, 0.00, -0.00, -1.00, 241.6, 99.3)">a</text><text xml:space="preserve" font-family="HelveticaLTStd-Blk,Helvetica LT Std" font-weight="bold" font-size="71.2" fill="#D5D5D5" transform="matrix(1.00, 0.00, -0.00, -1.00, 289.1, 99.3)">n</text><text xml:space="preserve" font-family="HelveticaLTStd-Blk,Helvetica LT Std" font-weight="bold" font-size="71.2" fill="#D5D5D5" transform="matrix(1.00, 0.00, -0.00, -1.00, 336.6, 99.3)">d</text><text xml:space="preserve" font-family="HelveticaLTStd-Blk,Helvetica LT Std" font-weight="bold" font-size="71.2" fill="#D5D5D5" transform="matrix(1.00, 0.00, -0.00, -1.00, 384.1, 99.3)"> </text><text xml:space="preserve" font-family="HelveticaLTStd-Blk,Helvetica LT Std" font-weight="bold" font-size="71.2" fill="#D5D5D5" transform="matrix(1.00, 0.00, -0.00, -1.00, 407.8, 99.3)">M</text><text xml:space="preserve" font-family="HelveticaLTStd-Blk,Helvetica LT Std" font-weight="bold" font-size="71.2" fill="#D5D5D5" transform="matrix(1.00, 0.00, -0.00, -1.00, 475.0, 99.3)">e</text><text xml:space="preserve" font-family="HelveticaLTStd-Blk,Helvetica LT Std" font-weight="bold" font-size="71.2" fill="#D5D5D5" transform="matrix(1.00, 0.00, -0.00, -1.00, 522.5, 99.3)">t</text><text xml:space="preserve" font-family="HelveticaLTStd-Blk,Helvetica LT Std" font-weight="bold" font-size="71.2" fill="#D5D5D5" transform="matrix(1.00, 0.00, -0.00, -1.00, 554.1, 99.3)">r</text><text xml:space="preserve" font-family="HelveticaLTStd-Blk,Helvetica LT Std" font-weight="bold" font-size="71.2" fill="#D5D5D5" transform="matrix(1.00, 0.00, -0.00, -1.00, 584.4, 99.3)">o</text><text xml:space="preserve" font-family="HelveticaLTStd-Blk,Helvetica LT Std" font-weight="bold" font-size="71.2" fill="#D5D5D5" transform="matrix(1.00, 0.00, -0.00, -1.00, 631.9, 99.3)">p</text><text xml:space="preserve" font-family="HelveticaLTStd-Blk,Helvetica LT Std" font-weight="bold" font-size="71.2" fill="#D5D5D5" transform="matrix(1.00, 0.00, -0.00, -1.00, 679.4, 99.3)">a</text><text xml:space="preserve" font-family="HelveticaLTStd-Blk,Helvetica LT Std" font-weight="bold" font-size="71.2" fill="#D5D5D5" transform="matrix(1.00, 0.00, -0.00, -1.00, 726.9, 99.3)">r</text><text xml:space="preserve" font-family="HelveticaLTStd-Blk,Helvetica LT Std" font-weight="bold" font-size="71.2" fill="#D5D5D5" transform="matrix(1.00, 0.00, -0.00, -1.00, 758.5, 99.3)">k</text><text xml:space="preserve" font-family="HelveticaLTStd-Blk,Helvetica LT Std" font-weight="bold" font-size="71.2" fill="#D5D5D5" transform="matrix(1.00, 0.00, -0.00, -1.00, 806.0, 99.3)">s</text><text xml:space="preserve" font-family="HelveticaLTStd-Blk,Helvetica LT Std" font-weight="bold" font-size="71.2" fill="#D5D5D5" transform="matrix(1.00, 0.00, -0.00, -1.00, 849.5, 99.3)"> </text><text xml:space="preserve" font-family="HelveticaLTStd-Blk,Helvetica LT Std" font-weight="bold" font-size="71.2" fill="#D5D5D5" transform="matrix(1.00, 0.00, -0.00, -1.00, 230.4, 14.3)">T</text><text xml:space="preserve" font-family="HelveticaLTStd-Blk,Helvetica LT Std" font-weight="bold" font-size="71.2" fill="#D5D5D5" transform="matrix(1.00, 0.00, -0.00, -1.00, 275.3, 14.3)">r</text><text xml:space="preserve" font-family="HelveticaLTStd-Blk,Helvetica LT Std" font-weight="bold" font-size="71.2" fill="#D5D5D5" transform="matrix(1.00, 0.00, -0.00, -1.00, 306.9, 14.3)">a</text><text xml:space="preserve" font-family="HelveticaLTStd-Blk,Helvetica LT Std" font-weight="bold" font-size="71.2" fill="#D5D5D5" transform="matrix(1.00, 0.00, -0.00, -1.00, 354.4, 14.3)">i</text><text xml:space="preserve" font-family="HelveticaLTStd-Blk,Helvetica LT Std" font-weight="bold" font-size="71.2" fill="#D5D5D5" transform="matrix(1.00, 0.00, -0.00, -1.00, 378.1, 14.3)">l</text><text xml:space="preserve" font-family="HelveticaLTStd-Blk,Helvetica LT Std" font-weight="bold" font-size="71.2" fill="#D5D5D5" transform="matrix(1.00, 0.00, -0.00, -1.00, 401.8, 14.3)">s</text><text xml:space="preserve" font-family="HelveticaLTStd-Blk,Helvetica LT Std" font-weight="bold" font-size="71.2" fill="#D5D5D5" transform="matrix(1.00, 0.00, -0.00, -1.00, 445.3, 14.3)"> </text><text xml:space="preserve" font-family="HelveticaLTStd-Blk,Helvetica LT Std" font-weight="bold" font-size="71.2" fill="#D5D5D5" transform="matrix(1.00, 0.00, -0.00, -1.00, 469.0, 14.3)">A</text><text xml:space="preserve" font-family="HelveticaLTStd-Blk,Helvetica LT Std" font-weight="bold" font-size="71.2" fill="#D5D5D5" transform="matrix(1.00, 0.00, -0.00, -1.00, 524.4, 14.3)">p</text><text xml:space="preserve" font-family="HelveticaLTStd-Blk,Helvetica LT Std" font-weight="bold" font-size="71.2" fill="#D5D5D5" transform="matrix(1.00, 0.00, -0.00, -1.00, 571.9, 14.3)">p</text></g></svg>