<?xml version="1.0" encoding="UTF-8" standalone="no"?><svg xmlns="http://www.w3.org/2000/svg" xmlns:xlink="http://www.w3.org/1999/xlink" clip-rule="evenodd" stroke-miterlimit="10" viewBox="0 0 553 38"><desc>SVG generated by Keynote</desc><defs></defs><g transform="matrix(1.00, 0.00, -0.00, -1.00, 0.0, 38.0)"><text xml:space="preserve" font-family="Helvetica-Light,Helvetica" font-size="27.9" fill="#D5D5D5" transform="matrix(1.00, 0.00, -0.00, -1.00, 0.3, 13.3)">•</text><text xml:space="preserve" font-family="Helvetica-Light,Helvetica" font-size="37.2" fill="#D5D5D5" transform="matrix(1.00, 0.00, -0.00, -1.00, 34.6, 9.4)">F</text><text xml:space="preserve" font-family="Helvetica-Light,Helvetica" font-size="37.2" fill="#D5D5D5" transform="matrix(1.00, 0.00, -0.00, -1.00, 55.3, 9.4)">i</text><text xml:space="preserve" font-family="Helvetica-Light,Helvetica" font-size="37.2" fill="#D5D5D5" transform="matrix(1.00, 0.00, -0.00, -1.00, 63.6, 9.4)">r</text><text xml:space="preserve" font-family="Helvetica-Light,Helvetica" font-size="37.2" fill="#D5D5D5" transform="matrix(1.00, 0.00, -0.00, -1.00, 76.0, 9.4)">s</text><text xml:space="preserve" font-family="Helvetica-Light,Helvetica" font-size="37.2" fill="#D5D5D5" transform="matrix(1.00, 0.00, -0.00, -1.00, 94.6, 9.4)">t</text><text xml:space="preserve" font-family="Helvetica-Light,Helvetica" font-size="37.2" fill="#D5D5D5" transform="matrix(1.00, 0.00, -0.00, -1.00, 104.9, 9.4)"> </text><text xml:space="preserve" font-family="Helvetica-Light,Helvetica" font-size="37.2" fill="#D5D5D5" transform="matrix(1.00, 0.00, -0.00, -1.00, 115.3, 9.4)">m</text><text xml:space="preserve" font-family="Helvetica-Light,Helvetica" font-size="37.2" fill="#D5D5D5" transform="matrix(1.00, 0.00, -0.00, -1.00, 146.3, 9.4)">o</text><text xml:space="preserve" font-family="Helvetica-Light,Helvetica" font-size="37.2" fill="#D5D5D5" transform="matrix(1.00, 0.00, -0.00, -1.00, 167.0, 9.4)">b</text><text xml:space="preserve" font-family="Helvetica-Light,Helvetica" font-size="37.2" fill="#D5D5D5" transform="matrix(1.00, 0.00, -0.00, -1.00, 189.8, 9.4)">i</text><text xml:space="preserve" font-family="Helvetica-Light,Helvetica" font-size="37.2" fill="#D5D5D5" transform="matrix(1.00, 0.00, -0.00, -1.00, 198.0, 9.4)">l</text><text xml:space="preserve" font-family="Helvetica-Light,Helvetica" font-size="37.2" fill="#D5D5D5" transform="matrix(1.00, 0.00, -0.00, -1.00, 206.3, 9.4)">e</text><text xml:space="preserve" font-family="Helvetica-Light,Helvetica" font-size="37.2" fill="#D5D5D5" transform="matrix(1.00, 0.00, -0.00, -1.00, 227.0, 9.4)"> </text><text xml:space="preserve" font-family="Helvetica-Light,Helvetica" font-size="37.2" fill="#D5D5D5" transform="matrix(1.00, 0.00, -0.00, -1.00, 237.4, 9.4)">w</text><text xml:space="preserve" font-family="Helvetica-Light,Helvetica" font-size="37.2" fill="#D5D5D5" transform="matrix(1.00, 0.00, -0.00, -1.00, 264.3, 9.4)">e</text><text xml:space="preserve" font-family="Helvetica-Light,Helvetica" font-size="37.2" fill="#D5D5D5" transform="matrix(1.00, 0.00, -0.00, -1.00, 285.0, 9.4)">b</text><text xml:space="preserve" font-family="Helvetica-Light,Helvetica" font-size="37.2" fill="#D5D5D5" transform="matrix(1.00, 0.00, -0.00, -1.00, 307.7, 9.4)"> </text><text xml:space="preserve" font-family="Helvetica-Light,Helvetica" font-size="37.2" fill="#D5D5D5" transform="matrix(1.00, 0.00, -0.00, -1.00, 318.1, 9.4)">a</text><text xml:space="preserve" font-family="Helvetica-Light,Helvetica" font-size="37.2" fill="#D5D5D5" transform="matrix(1.00, 0.00, -0.00, -1.00, 338.8, 9.4)">p</text><text xml:space="preserve" font-family="Helvetica-Light,Helvetica" font-size="37.2" fill="#D5D5D5" transform="matrix(1.00, 0.00, -0.00, -1.00, 361.5, 9.4)">p</text><text xml:space="preserve" font-family="Helvetica-Light,Helvetica" font-size="37.2" fill="#D5D5D5" transform="matrix(1.00, 0.00, -0.00, -1.00, 384.3, 9.4)"> </text><text xml:space="preserve" font-family="Helvetica-Light,Helvetica" font-size="37.2" fill="#D5D5D5" transform="matrix(1.00, 0.00, -0.00, -1.00, 394.6, 9.4)">o</text><text xml:space="preserve" font-family="Helvetica-Light,Helvetica" font-size="37.2" fill="#D5D5D5" transform="matrix(1.00, 0.00, -0.00, -1.00, 415.3, 9.4)">f</text><text xml:space="preserve" font-family="Helvetica-Light,Helvetica" font-size="37.2" fill="#D5D5D5" transform="matrix(1.00, 0.00, -0.00, -1.00, 425.7, 9.4)"> </text><text xml:space="preserve" font-family="Helvetica-Light,Helvetica" font-size="37.2" fill="#D5D5D5" transform="matrix(1.00, 0.00, -0.00, -1.00, 436.0, 9.4)">i</text><text xml:space="preserve" font-family="Helvetica-Light,Helvetica" font-size="37.2" fill="#D5D5D5" transform="matrix(1.00, 0.00, -0.00, -1.00, 444.3, 9.4)">t</text><text xml:space="preserve" font-family="Helvetica-Light,Helvetica" font-size="37.2" fill="#D5D5D5" transform="matrix(1.00, 0.00, -0.00, -1.00, 454.7, 9.4)">s</text><text xml:space="preserve" font-family="Helvetica-Light,Helvetica" font-size="37.2" fill="#D5D5D5" transform="matrix(1.00, 0.00, -0.00, -1.00, 473.3, 9.4)"> </text><text xml:space="preserve" font-family="Helvetica-Light,Helvetica" font-size="37.2" fill="#D5D5D5" transform="matrix(1.00, 0.00, -0.00, -1.00, 483.6, 9.4)">k</text><text xml:space="preserve" font-family="Helvetica-Light,Helvetica" font-size="37.2" fill="#D5D5D5" transform="matrix(1.00, 0.00, -0.00, -1.00, 502.3, 9.4)">i</text><text xml:space="preserve" font-family="Helvetica-Light,Helvetica" font-size="37.2" fill="#D5D5D5" transform="matrix(1.00, 0.00, -0.00, -1.00, 510.5, 9.4)">n</text><text xml:space="preserve" font-family="Helvetica-Light,Helvetica" font-size="37.2" fill="#D5D5D5" transform="matrix(1.00, 0.00, -0.00, -1.00, 531.2, 9.4)">d</text></g></svg>