<?xml version="1.0" encoding="UTF-8" standalone="no"?><svg xmlns="http://www.w3.org/2000/svg" xmlns:xlink="http://www.w3.org/1999/xlink" clip-rule="evenodd" stroke-miterlimit="10" viewBox="0 0 356 37"><desc>SVG generated by Keynote</desc><defs></defs><g transform="matrix(1.00, 0.00, -0.00, -1.00, 0.0, 37.0)"><text xml:space="preserve" font-family="Helvetica-Light,Helvetica" font-size="27.9" fill="#D5D5D5" transform="matrix(1.00, 0.00, -0.00, -1.00, 0.3, 12.9)">•</text><text xml:space="preserve" font-family="Helvetica-Light,Helvetica" font-size="37.2" fill="#D5D5D5" transform="matrix(1.00, 0.00, -0.00, -1.00, 34.6, 9.1)">&gt;</text><text xml:space="preserve" font-family="Helvetica-Light,Helvetica" font-size="37.2" fill="#D5D5D5" transform="matrix(1.00, 0.00, -0.00, -1.00, 59.2, 9.1)"> </text><text xml:space="preserve" font-family="Helvetica-Light,Helvetica" font-size="37.2" fill="#D5D5D5" transform="matrix(1.00, 0.00, -0.00, -1.00, 69.5, 9.1)">1</text><text xml:space="preserve" font-family="Helvetica-Light,Helvetica" font-size="37.2" fill="#D5D5D5" transform="matrix(1.00, 0.00, -0.00, -1.00, 90.2, 9.1)">0</text><text xml:space="preserve" font-family="Helvetica-Light,Helvetica" font-size="37.2" fill="#D5D5D5" transform="matrix(1.00, 0.00, -0.00, -1.00, 110.9, 9.1)">k</text><text xml:space="preserve" font-family="Helvetica-Light,Helvetica" font-size="37.2" fill="#D5D5D5" transform="matrix(1.00, 0.00, -0.00, -1.00, 129.6, 9.1)"> </text><text xml:space="preserve" font-family="Helvetica-Light,Helvetica" font-size="37.2" fill="#D5D5D5" transform="matrix(1.00, 0.00, -0.00, -1.00, 139.9, 9.1)">u</text><text xml:space="preserve" font-family="Helvetica-Light,Helvetica" font-size="37.2" fill="#D5D5D5" transform="matrix(1.00, 0.00, -0.00, -1.00, 160.6, 9.1)">n</text><text xml:space="preserve" font-family="Helvetica-Light,Helvetica" font-size="37.2" fill="#D5D5D5" transform="matrix(1.00, 0.00, -0.00, -1.00, 181.3, 9.1)">i</text><text xml:space="preserve" font-family="Helvetica-Light,Helvetica" font-size="37.2" fill="#D5D5D5" transform="matrix(1.00, 0.00, -0.00, -1.00, 189.6, 9.1)">q</text><text xml:space="preserve" font-family="Helvetica-Light,Helvetica" font-size="37.2" fill="#D5D5D5" transform="matrix(1.00, 0.00, -0.00, -1.00, 212.3, 9.1)">u</text><text xml:space="preserve" font-family="Helvetica-Light,Helvetica" font-size="37.2" fill="#D5D5D5" transform="matrix(1.00, 0.00, -0.00, -1.00, 233.1, 9.1)">e</text><text xml:space="preserve" font-family="Helvetica-Light,Helvetica" font-size="37.2" fill="#D5D5D5" transform="matrix(1.00, 0.00, -0.00, -1.00, 253.8, 9.1)"> </text><text xml:space="preserve" font-family="Helvetica-Light,Helvetica" font-size="37.2" fill="#D5D5D5" transform="matrix(1.00, 0.00, -0.00, -1.00, 264.1, 9.1)">u</text><text xml:space="preserve" font-family="Helvetica-Light,Helvetica" font-size="37.2" fill="#D5D5D5" transform="matrix(1.00, 0.00, -0.00, -1.00, 284.8, 9.1)">s</text><text xml:space="preserve" font-family="Helvetica-Light,Helvetica" font-size="37.2" fill="#D5D5D5" transform="matrix(1.00, 0.00, -0.00, -1.00, 303.4, 9.1)">e</text><text xml:space="preserve" font-family="Helvetica-Light,Helvetica" font-size="37.2" fill="#D5D5D5" transform="matrix(1.00, 0.00, -0.00, -1.00, 324.1, 9.1)">r</text><text xml:space="preserve" font-family="Helvetica-Light,Helvetica" font-size="37.2" fill="#D5D5D5" transform="matrix(1.00, 0.00, -0.00, -1.00, 336.5, 9.1)">s</text></g></svg>