<?xml version="1.0" encoding="UTF-8" standalone="no"?><svg xmlns="http://www.w3.org/2000/svg" xmlns:xlink="http://www.w3.org/1999/xlink" clip-rule="evenodd" stroke-miterlimit="10" viewBox="0 0 1024 768"><desc>SVG generated by Keynote</desc><defs></defs><g transform="matrix(1.00, 0.00, -0.00, -1.00, 0.0, 768.0)"><path d="M 0.0 768.0 L 1024.0 768.0 L 1024.0 0.0 L 0.0 0.0 Z M 0.0 768.0 " fill="#000000"></path><image xlink:href="../../C823CD46-6B23-4FF8-B771-284A73E25344/assets/AE3B8823BCB94289D565C9ACADDA37A2.png" width="1024.00" height="768.00" transform="matrix(1.00, 0.00, -0.00, -1.00, 0.0, 768.0)"></image><text xml:space="preserve" font-family="HelveticaLTStd-Blk,Helvetica LT Std" font-weight="bold" font-size="71.2" fill="#D5D5D5" transform="matrix(1.00, 0.00, -0.00, -1.00, 152.3, 690.3)">C</text><text xml:space="preserve" font-family="HelveticaLTStd-Blk,Helvetica LT Std" font-weight="bold" font-size="71.2" fill="#D5D5D5" transform="matrix(1.00, 0.00, -0.00, -1.00, 207.7, 690.3)">l</text><text xml:space="preserve" font-family="HelveticaLTStd-Blk,Helvetica LT Std" font-weight="bold" font-size="71.2" fill="#D5D5D5" transform="matrix(1.00, 0.00, -0.00, -1.00, 231.4, 690.3)">e</text><text xml:space="preserve" font-family="HelveticaLTStd-Blk,Helvetica LT Std" font-weight="bold" font-size="71.2" fill="#D5D5D5" transform="matrix(1.00, 0.00, -0.00, -1.00, 278.9, 690.3)">v</text><text xml:space="preserve" font-family="HelveticaLTStd-Blk,Helvetica LT Std" font-weight="bold" font-size="71.2" fill="#D5D5D5" transform="matrix(1.00, 0.00, -0.00, -1.00, 322.4, 690.3)">e</text><text xml:space="preserve" font-family="HelveticaLTStd-Blk,Helvetica LT Std" font-weight="bold" font-size="71.2" fill="#D5D5D5" transform="matrix(1.00, 0.00, -0.00, -1.00, 369.9, 690.3)">l</text><text xml:space="preserve" font-family="HelveticaLTStd-Blk,Helvetica LT Std" font-weight="bold" font-size="71.2" fill="#D5D5D5" transform="matrix(1.00, 0.00, -0.00, -1.00, 393.6, 690.3)">a</text><text xml:space="preserve" font-family="HelveticaLTStd-Blk,Helvetica LT Std" font-weight="bold" font-size="71.2" fill="#D5D5D5" transform="matrix(1.00, 0.00, -0.00, -1.00, 441.1, 690.3)">n</text><text xml:space="preserve" font-family="HelveticaLTStd-Blk,Helvetica LT Std" font-weight="bold" font-size="71.2" fill="#D5D5D5" transform="matrix(1.00, 0.00, -0.00, -1.00, 488.6, 690.3)">d</text><text xml:space="preserve" font-family="HelveticaLTStd-Blk,Helvetica LT Std" font-weight="bold" font-size="71.2" fill="#D5D5D5" transform="matrix(1.00, 0.00, -0.00, -1.00, 536.1, 690.3)"> </text><text xml:space="preserve" font-family="HelveticaLTStd-Blk,Helvetica LT Std" font-weight="bold" font-size="71.2" fill="#D5D5D5" transform="matrix(1.00, 0.00, -0.00, -1.00, 559.8, 690.3)">M</text><text xml:space="preserve" font-family="HelveticaLTStd-Blk,Helvetica LT Std" font-weight="bold" font-size="71.2" fill="#D5D5D5" transform="matrix(1.00, 0.00, -0.00, -1.00, 627.0, 690.3)">e</text><text xml:space="preserve" font-family="HelveticaLTStd-Blk,Helvetica LT Std" font-weight="bold" font-size="71.2" fill="#D5D5D5" transform="matrix(1.00, 0.00, -0.00, -1.00, 674.5, 690.3)">t</text><text xml:space="preserve" font-family="HelveticaLTStd-Blk,Helvetica LT Std" font-weight="bold" font-size="71.2" fill="#D5D5D5" transform="matrix(1.00, 0.00, -0.00, -1.00, 706.1, 690.3)">r</text><text xml:space="preserve" font-family="HelveticaLTStd-Blk,Helvetica LT Std" font-weight="bold" font-size="71.2" fill="#D5D5D5" transform="matrix(1.00, 0.00, -0.00, -1.00, 736.4, 690.3)">o</text><text xml:space="preserve" font-family="HelveticaLTStd-Blk,Helvetica LT Std" font-weight="bold" font-size="71.2" fill="#D5D5D5" transform="matrix(1.00, 0.00, -0.00, -1.00, 783.9, 690.3)">p</text><text xml:space="preserve" font-family="HelveticaLTStd-Blk,Helvetica LT Std" font-weight="bold" font-size="71.2" fill="#D5D5D5" transform="matrix(1.00, 0.00, -0.00, -1.00, 831.4, 690.3)">a</text><text xml:space="preserve" font-family="HelveticaLTStd-Blk,Helvetica LT Std" font-weight="bold" font-size="71.2" fill="#D5D5D5" transform="matrix(1.00, 0.00, -0.00, -1.00, 878.9, 690.3)">r</text><text xml:space="preserve" font-family="HelveticaLTStd-Blk,Helvetica LT Std" font-weight="bold" font-size="71.2" fill="#D5D5D5" transform="matrix(1.00, 0.00, -0.00, -1.00, 910.5, 690.3)">k</text><text xml:space="preserve" font-family="HelveticaLTStd-Blk,Helvetica LT Std" font-weight="bold" font-size="71.2" fill="#D5D5D5" transform="matrix(1.00, 0.00, -0.00, -1.00, 958.0, 690.3)">s</text><text xml:space="preserve" font-family="HelveticaLTStd-Blk,Helvetica LT Std" font-weight="bold" font-size="71.2" fill="#D5D5D5" transform="matrix(1.00, 0.00, -0.00, -1.00, 1001.5, 690.3)"> </text><text xml:space="preserve" font-family="HelveticaLTStd-Blk,Helvetica LT Std" font-weight="bold" font-size="71.2" fill="#D5D5D5" transform="matrix(1.00, 0.00, -0.00, -1.00, 382.4, 605.3)">T</text><text xml:space="preserve" font-family="HelveticaLTStd-Blk,Helvetica LT Std" font-weight="bold" font-size="71.2" fill="#D5D5D5" transform="matrix(1.00, 0.00, -0.00, -1.00, 427.3, 605.3)">r</text><text xml:space="preserve" font-family="HelveticaLTStd-Blk,Helvetica LT Std" font-weight="bold" font-size="71.2" fill="#D5D5D5" transform="matrix(1.00, 0.00, -0.00, -1.00, 458.9, 605.3)">a</text><text xml:space="preserve" font-family="HelveticaLTStd-Blk,Helvetica LT Std" font-weight="bold" font-size="71.2" fill="#D5D5D5" transform="matrix(1.00, 0.00, -0.00, -1.00, 506.4, 605.3)">i</text><text xml:space="preserve" font-family="HelveticaLTStd-Blk,Helvetica LT Std" font-weight="bold" font-size="71.2" fill="#D5D5D5" transform="matrix(1.00, 0.00, -0.00, -1.00, 530.1, 605.3)">l</text><text xml:space="preserve" font-family="HelveticaLTStd-Blk,Helvetica LT Std" font-weight="bold" font-size="71.2" fill="#D5D5D5" transform="matrix(1.00, 0.00, -0.00, -1.00, 553.8, 605.3)">s</text><text xml:space="preserve" font-family="HelveticaLTStd-Blk,Helvetica LT Std" font-weight="bold" font-size="71.2" fill="#D5D5D5" transform="matrix(1.00, 0.00, -0.00, -1.00, 597.3, 605.3)"> </text><text xml:space="preserve" font-family="HelveticaLTStd-Blk,Helvetica LT Std" font-weight="bold" font-size="71.2" fill="#D5D5D5" transform="matrix(1.00, 0.00, -0.00, -1.00, 621.0, 605.3)">A</text><text xml:space="preserve" font-family="HelveticaLTStd-Blk,Helvetica LT Std" font-weight="bold" font-size="71.2" fill="#D5D5D5" transform="matrix(1.00, 0.00, -0.00, -1.00, 676.4, 605.3)">p</text><text xml:space="preserve" font-family="HelveticaLTStd-Blk,Helvetica LT Std" font-weight="bold" font-size="71.2" fill="#D5D5D5" transform="matrix(1.00, 0.00, -0.00, -1.00, 723.9, 605.3)">p</text><text xml:space="preserve" font-family="Helvetica-Light,Helvetica" font-size="27.9" fill="#D5D5D5" transform="matrix(1.00, 0.00, -0.00, -1.00, 176.3, 505.4)">•</text><text xml:space="preserve" font-family="Helvetica-Light,Helvetica" font-size="37.2" fill="#D5D5D5" transform="matrix(1.00, 0.00, -0.00, -1.00, 210.6, 501.6)">L</text><text xml:space="preserve" font-family="Helvetica-Light,Helvetica" font-size="37.2" fill="#D5D5D5" transform="matrix(1.00, 0.00, -0.00, -1.00, 231.3, 501.6)">a</text><text xml:space="preserve" font-family="Helvetica-Light,Helvetica" font-size="37.2" fill="#D5D5D5" transform="matrix(1.00, 0.00, -0.00, -1.00, 252.0, 501.6)">u</text><text xml:space="preserve" font-family="Helvetica-Light,Helvetica" font-size="37.2" fill="#D5D5D5" transform="matrix(1.00, 0.00, -0.00, -1.00, 272.7, 501.6)">n</text><text xml:space="preserve" font-family="Helvetica-Light,Helvetica" font-size="37.2" fill="#D5D5D5" transform="matrix(1.00, 0.00, -0.00, -1.00, 293.4, 501.6)">c</text><text xml:space="preserve" font-family="Helvetica-Light,Helvetica" font-size="37.2" fill="#D5D5D5" transform="matrix(1.00, 0.00, -0.00, -1.00, 314.1, 501.6)">h</text><text xml:space="preserve" font-family="Helvetica-Light,Helvetica" font-size="37.2" fill="#D5D5D5" transform="matrix(1.00, 0.00, -0.00, -1.00, 334.8, 501.6)">e</text><text xml:space="preserve" font-family="Helvetica-Light,Helvetica" font-size="37.2" fill="#D5D5D5" transform="matrix(1.00, 0.00, -0.00, -1.00, 355.5, 501.6)">d</text><text xml:space="preserve" font-family="Helvetica-Light,Helvetica" font-size="37.2" fill="#D5D5D5" transform="matrix(1.00, 0.00, -0.00, -1.00, 378.3, 501.6)"> </text><text xml:space="preserve" font-family="Helvetica-Light,Helvetica" font-size="37.2" fill="#D5D5D5" transform="matrix(1.00, 0.00, -0.00, -1.00, 388.6, 501.6)">J</text><text xml:space="preserve" font-family="Helvetica-Light,Helvetica" font-size="37.2" fill="#D5D5D5" transform="matrix(1.00, 0.00, -0.00, -1.00, 407.3, 501.6)">a</text><text xml:space="preserve" font-family="Helvetica-Light,Helvetica" font-size="37.2" fill="#D5D5D5" transform="matrix(1.00, 0.00, -0.00, -1.00, 428.0, 501.6)">n</text><text xml:space="preserve" font-family="Helvetica-Light,Helvetica" font-size="37.2" fill="#D5D5D5" transform="matrix(1.00, 0.00, -0.00, -1.00, 448.7, 501.6)">u</text><text xml:space="preserve" font-family="Helvetica-Light,Helvetica" font-size="37.2" fill="#D5D5D5" transform="matrix(1.00, 0.00, -0.00, -1.00, 469.4, 501.6)">a</text><text xml:space="preserve" font-family="Helvetica-Light,Helvetica" font-size="37.2" fill="#D5D5D5" transform="matrix(1.00, 0.00, -0.00, -1.00, 490.1, 501.6)">r</text><text xml:space="preserve" font-family="Helvetica-Light,Helvetica" font-size="37.2" fill="#D5D5D5" transform="matrix(1.00, 0.00, -0.00, -1.00, 503.2, 501.6)">y</text><text xml:space="preserve" font-family="Helvetica-Light,Helvetica" font-size="37.2" fill="#D5D5D5" transform="matrix(1.00, 0.00, -0.00, -1.00, 521.8, 501.6)"> </text><text xml:space="preserve" font-family="Helvetica-Light,Helvetica" font-size="37.2" fill="#D5D5D5" transform="matrix(1.00, 0.00, -0.00, -1.00, 532.1, 501.6)">o</text><text xml:space="preserve" font-family="Helvetica-Light,Helvetica" font-size="37.2" fill="#D5D5D5" transform="matrix(1.00, 0.00, -0.00, -1.00, 552.8, 501.6)">f</text><text xml:space="preserve" font-family="Helvetica-Light,Helvetica" font-size="37.2" fill="#D5D5D5" transform="matrix(1.00, 0.00, -0.00, -1.00, 563.2, 501.6)"> </text><text xml:space="preserve" font-family="Helvetica-Light,Helvetica" font-size="37.2" fill="#D5D5D5" transform="matrix(1.00, 0.00, -0.00, -1.00, 573.5, 501.6)">2</text><text xml:space="preserve" font-family="Helvetica-Light,Helvetica" font-size="37.2" fill="#D5D5D5" transform="matrix(1.00, 0.00, -0.00, -1.00, 594.2, 501.6)">0</text><text xml:space="preserve" font-family="Helvetica-Light,Helvetica" font-size="37.2" fill="#D5D5D5" transform="matrix(1.00, 0.00, -0.00, -1.00, 615.0, 501.6)">1</text><text xml:space="preserve" font-family="Helvetica-Light,Helvetica" font-size="37.2" fill="#D5D5D5" transform="matrix(1.00, 0.00, -0.00, -1.00, 635.7, 501.6)">2</text><text xml:space="preserve" font-family="Helvetica-Light,Helvetica" font-size="37.2" fill="#D5D5D5" transform="matrix(1.00, 0.00, -0.00, -1.00, 656.4, 501.6)"> </text><text xml:space="preserve" font-family="Helvetica-Light,Helvetica" font-size="37.2" fill="#D5D5D5" transform="matrix(1.00, 0.00, -0.00, -1.00, 666.7, 501.6)">i</text><text xml:space="preserve" font-family="Helvetica-Light,Helvetica" font-size="37.2" fill="#D5D5D5" transform="matrix(1.00, 0.00, -0.00, -1.00, 675.0, 501.6)">n</text><text xml:space="preserve" font-family="Helvetica-Light,Helvetica" font-size="37.2" fill="#D5D5D5" transform="matrix(1.00, 0.00, -0.00, -1.00, 695.7, 501.6)"> </text><text xml:space="preserve" font-family="Helvetica-Light,Helvetica" font-size="37.2" fill="#D5D5D5" transform="matrix(1.00, 0.00, -0.00, -1.00, 210.6, 455.6)">c</text><text xml:space="preserve" font-family="Helvetica-Light,Helvetica" font-size="37.2" fill="#D5D5D5" transform="matrix(1.00, 0.00, -0.00, -1.00, 231.3, 455.6)">o</text><text xml:space="preserve" font-family="Helvetica-Light,Helvetica" font-size="37.2" fill="#D5D5D5" transform="matrix(1.00, 0.00, -0.00, -1.00, 252.0, 455.6)">n</text><text xml:space="preserve" font-family="Helvetica-Light,Helvetica" font-size="37.2" fill="#D5D5D5" transform="matrix(1.00, 0.00, -0.00, -1.00, 272.7, 455.6)">j</text><text xml:space="preserve" font-family="Helvetica-Light,Helvetica" font-size="37.2" fill="#D5D5D5" transform="matrix(1.00, 0.00, -0.00, -1.00, 281.0, 455.6)">u</text><text xml:space="preserve" font-family="Helvetica-Light,Helvetica" font-size="37.2" fill="#D5D5D5" transform="matrix(1.00, 0.00, -0.00, -1.00, 301.7, 455.6)">n</text><text xml:space="preserve" font-family="Helvetica-Light,Helvetica" font-size="37.2" fill="#D5D5D5" transform="matrix(1.00, 0.00, -0.00, -1.00, 322.4, 455.6)">c</text><text xml:space="preserve" font-family="Helvetica-Light,Helvetica" font-size="37.2" fill="#D5D5D5" transform="matrix(1.00, 0.00, -0.00, -1.00, 343.1, 455.6)">t</text><text xml:space="preserve" font-family="Helvetica-Light,Helvetica" font-size="37.2" fill="#D5D5D5" transform="matrix(1.00, 0.00, -0.00, -1.00, 353.5, 455.6)">i</text><text xml:space="preserve" font-family="Helvetica-Light,Helvetica" font-size="37.2" fill="#D5D5D5" transform="matrix(1.00, 0.00, -0.00, -1.00, 361.7, 455.6)">o</text><text xml:space="preserve" font-family="Helvetica-Light,Helvetica" font-size="37.2" fill="#D5D5D5" transform="matrix(1.00, 0.00, -0.00, -1.00, 382.4, 455.6)">n</text><text xml:space="preserve" font-family="Helvetica-Light,Helvetica" font-size="37.2" fill="#D5D5D5" transform="matrix(1.00, 0.00, -0.00, -1.00, 403.1, 455.6)"> </text><text xml:space="preserve" font-family="Helvetica-Light,Helvetica" font-size="37.2" fill="#D5D5D5" transform="matrix(1.00, 0.00, -0.00, -1.00, 413.5, 455.6)">w</text><text xml:space="preserve" font-family="Helvetica-Light,Helvetica" font-size="37.2" fill="#D5D5D5" transform="matrix(1.00, 0.00, -0.00, -1.00, 440.4, 455.6)">i</text><text xml:space="preserve" font-family="Helvetica-Light,Helvetica" font-size="37.2" fill="#D5D5D5" transform="matrix(1.00, 0.00, -0.00, -1.00, 448.6, 455.6)">t</text><text xml:space="preserve" font-family="Helvetica-Light,Helvetica" font-size="37.2" fill="#D5D5D5" transform="matrix(1.00, 0.00, -0.00, -1.00, 459.0, 455.6)">h</text><text xml:space="preserve" font-family="Helvetica-Light,Helvetica" font-size="37.2" fill="#D5D5D5" transform="matrix(1.00, 0.00, -0.00, -1.00, 479.7, 455.6)"> </text><text xml:space="preserve" font-family="Helvetica-Light,Helvetica" font-size="37.2" fill="#D5D5D5" transform="matrix(1.00, 0.00, -0.00, -1.00, 490.1, 455.6)">S</text><text xml:space="preserve" font-family="Helvetica-Light,Helvetica" font-size="37.2" fill="#D5D5D5" transform="matrix(1.00, 0.00, -0.00, -1.00, 512.8, 455.6)">o</text><text xml:space="preserve" font-family="Helvetica-Light,Helvetica" font-size="37.2" fill="#D5D5D5" transform="matrix(1.00, 0.00, -0.00, -1.00, 533.5, 455.6)">u</text><text xml:space="preserve" font-family="Helvetica-Light,Helvetica" font-size="37.2" fill="#D5D5D5" transform="matrix(1.00, 0.00, -0.00, -1.00, 554.2, 455.6)">t</text><text xml:space="preserve" font-family="Helvetica-Light,Helvetica" font-size="37.2" fill="#D5D5D5" transform="matrix(1.00, 0.00, -0.00, -1.00, 564.6, 455.6)">h</text><text xml:space="preserve" font-family="Helvetica-Light,Helvetica" font-size="37.2" fill="#D5D5D5" transform="matrix(1.00, 0.00, -0.00, -1.00, 585.3, 455.6)">w</text><text xml:space="preserve" font-family="Helvetica-Light,Helvetica" font-size="37.2" fill="#D5D5D5" transform="matrix(1.00, 0.00, -0.00, -1.00, 612.2, 455.6)">e</text><text xml:space="preserve" font-family="Helvetica-Light,Helvetica" font-size="37.2" fill="#D5D5D5" transform="matrix(1.00, 0.00, -0.00, -1.00, 632.9, 455.6)">s</text><text xml:space="preserve" font-family="Helvetica-Light,Helvetica" font-size="37.2" fill="#D5D5D5" transform="matrix(1.00, 0.00, -0.00, -1.00, 651.5, 455.6)">t</text><text xml:space="preserve" font-family="Helvetica-Light,Helvetica" font-size="37.2" fill="#D5D5D5" transform="matrix(1.00, 0.00, -0.00, -1.00, 661.8, 455.6)"> </text><text xml:space="preserve" font-family="Helvetica-Light,Helvetica" font-size="37.2" fill="#D5D5D5" transform="matrix(1.00, 0.00, -0.00, -1.00, 210.6, 409.6)">G</text><text xml:space="preserve" font-family="Helvetica-Light,Helvetica" font-size="37.2" fill="#D5D5D5" transform="matrix(1.00, 0.00, -0.00, -1.00, 239.6, 409.6)">e</text><text xml:space="preserve" font-family="Helvetica-Light,Helvetica" font-size="37.2" fill="#D5D5D5" transform="matrix(1.00, 0.00, -0.00, -1.00, 260.3, 409.6)">n</text><text xml:space="preserve" font-family="Helvetica-Light,Helvetica" font-size="37.2" fill="#D5D5D5" transform="matrix(1.00, 0.00, -0.00, -1.00, 281.0, 409.6)">e</text><text xml:space="preserve" font-family="Helvetica-Light,Helvetica" font-size="37.2" fill="#D5D5D5" transform="matrix(1.00, 0.00, -0.00, -1.00, 301.7, 409.6)">r</text><text xml:space="preserve" font-family="Helvetica-Light,Helvetica" font-size="37.2" fill="#D5D5D5" transform="matrix(1.00, 0.00, -0.00, -1.00, 314.1, 409.6)">a</text><text xml:space="preserve" font-family="Helvetica-Light,Helvetica" font-size="37.2" fill="#D5D5D5" transform="matrix(1.00, 0.00, -0.00, -1.00, 334.8, 409.6)">l</text><text xml:space="preserve" font-family="Helvetica-Light,Helvetica" font-size="37.2" fill="#D5D5D5" transform="matrix(1.00, 0.00, -0.00, -1.00, 343.1, 409.6)"> </text><text xml:space="preserve" font-family="Helvetica-Light,Helvetica" font-size="37.2" fill="#D5D5D5" transform="matrix(1.00, 0.00, -0.00, -1.00, 353.4, 409.6)">a</text><text xml:space="preserve" font-family="Helvetica-Light,Helvetica" font-size="37.2" fill="#D5D5D5" transform="matrix(1.00, 0.00, -0.00, -1.00, 374.1, 409.6)">n</text><text xml:space="preserve" font-family="Helvetica-Light,Helvetica" font-size="37.2" fill="#D5D5D5" transform="matrix(1.00, 0.00, -0.00, -1.00, 394.8, 409.6)">d</text><text xml:space="preserve" font-family="Helvetica-Light,Helvetica" font-size="37.2" fill="#D5D5D5" transform="matrix(1.00, 0.00, -0.00, -1.00, 417.6, 409.6)"> </text><text xml:space="preserve" font-family="Helvetica-Light,Helvetica" font-size="37.2" fill="#D5D5D5" transform="matrix(1.00, 0.00, -0.00, -1.00, 427.9, 409.6)">G</text><text xml:space="preserve" font-family="Helvetica-Light,Helvetica" font-size="37.2" fill="#D5D5D5" transform="matrix(1.00, 0.00, -0.00, -1.00, 456.9, 409.6)">r</text><text xml:space="preserve" font-family="Helvetica-Light,Helvetica" font-size="37.2" fill="#D5D5D5" transform="matrix(1.00, 0.00, -0.00, -1.00, 468.6, 409.6)">e</text><text xml:space="preserve" font-family="Helvetica-Light,Helvetica" font-size="37.2" fill="#D5D5D5" transform="matrix(1.00, 0.00, -0.00, -1.00, 489.3, 409.6)">e</text><text xml:space="preserve" font-family="Helvetica-Light,Helvetica" font-size="37.2" fill="#D5D5D5" transform="matrix(1.00, 0.00, -0.00, -1.00, 510.0, 409.6)">n</text><text xml:space="preserve" font-family="Helvetica-Light,Helvetica" font-size="37.2" fill="#D5D5D5" transform="matrix(1.00, 0.00, -0.00, -1.00, 530.8, 409.6)">I</text><text xml:space="preserve" font-family="Helvetica-Light,Helvetica" font-size="37.2" fill="#D5D5D5" transform="matrix(1.00, 0.00, -0.00, -1.00, 541.1, 409.6)">n</text><text xml:space="preserve" font-family="Helvetica-Light,Helvetica" font-size="37.2" fill="#D5D5D5" transform="matrix(1.00, 0.00, -0.00, -1.00, 561.8, 409.6)">f</text><text xml:space="preserve" font-family="Helvetica-Light,Helvetica" font-size="37.2" fill="#D5D5D5" transform="matrix(1.00, 0.00, -0.00, -1.00, 572.2, 409.6)">o</text><text xml:space="preserve" font-family="Helvetica-Light,Helvetica" font-size="37.2" fill="#D5D5D5" transform="matrix(1.00, 0.00, -0.00, -1.00, 592.9, 409.6)"> </text><text xml:space="preserve" font-family="Helvetica-Light,Helvetica" font-size="37.2" fill="#D5D5D5" transform="matrix(1.00, 0.00, -0.00, -1.00, 603.2, 409.6)">N</text><text xml:space="preserve" font-family="Helvetica-Light,Helvetica" font-size="37.2" fill="#D5D5D5" transform="matrix(1.00, 0.00, -0.00, -1.00, 630.1, 409.6)">e</text><text xml:space="preserve" font-family="Helvetica-Light,Helvetica" font-size="37.2" fill="#D5D5D5" transform="matrix(1.00, 0.00, -0.00, -1.00, 650.8, 409.6)">t</text><text xml:space="preserve" font-family="Helvetica-Light,Helvetica" font-size="37.2" fill="#D5D5D5" transform="matrix(1.00, 0.00, -0.00, -1.00, 661.2, 409.6)">w</text><text xml:space="preserve" font-family="Helvetica-Light,Helvetica" font-size="37.2" fill="#D5D5D5" transform="matrix(1.00, 0.00, -0.00, -1.00, 688.1, 409.6)">o</text><text xml:space="preserve" font-family="Helvetica-Light,Helvetica" font-size="37.2" fill="#D5D5D5" transform="matrix(1.00, 0.00, -0.00, -1.00, 708.8, 409.6)">r</text><text xml:space="preserve" font-family="Helvetica-Light,Helvetica" font-size="37.2" fill="#D5D5D5" transform="matrix(1.00, 0.00, -0.00, -1.00, 721.2, 409.6)">k</text><text xml:space="preserve" font-family="Helvetica-Light,Helvetica" font-size="27.9" fill="#D5D5D5" transform="matrix(1.00, 0.00, -0.00, -1.00, 176.3, 326.3)">•</text><text xml:space="preserve" font-family="Helvetica-Light,Helvetica" font-size="37.2" fill="#D5D5D5" transform="matrix(1.00, 0.00, -0.00, -1.00, 210.6, 322.4)">F</text><text xml:space="preserve" font-family="Helvetica-Light,Helvetica" font-size="37.2" fill="#D5D5D5" transform="matrix(1.00, 0.00, -0.00, -1.00, 231.3, 322.4)">i</text><text xml:space="preserve" font-family="Helvetica-Light,Helvetica" font-size="37.2" fill="#D5D5D5" transform="matrix(1.00, 0.00, -0.00, -1.00, 239.6, 322.4)">r</text><text xml:space="preserve" font-family="Helvetica-Light,Helvetica" font-size="37.2" fill="#D5D5D5" transform="matrix(1.00, 0.00, -0.00, -1.00, 252.0, 322.4)">s</text><text xml:space="preserve" font-family="Helvetica-Light,Helvetica" font-size="37.2" fill="#D5D5D5" transform="matrix(1.00, 0.00, -0.00, -1.00, 270.6, 322.4)">t</text><text xml:space="preserve" font-family="Helvetica-Light,Helvetica" font-size="37.2" fill="#D5D5D5" transform="matrix(1.00, 0.00, -0.00, -1.00, 280.9, 322.4)"> </text><text xml:space="preserve" font-family="Helvetica-Light,Helvetica" font-size="37.2" fill="#D5D5D5" transform="matrix(1.00, 0.00, -0.00, -1.00, 291.3, 322.4)">m</text><text xml:space="preserve" font-family="Helvetica-Light,Helvetica" font-size="37.2" fill="#D5D5D5" transform="matrix(1.00, 0.00, -0.00, -1.00, 322.3, 322.4)">o</text><text xml:space="preserve" font-family="Helvetica-Light,Helvetica" font-size="37.2" fill="#D5D5D5" transform="matrix(1.00, 0.00, -0.00, -1.00, 343.0, 322.4)">b</text><text xml:space="preserve" font-family="Helvetica-Light,Helvetica" font-size="37.2" fill="#D5D5D5" transform="matrix(1.00, 0.00, -0.00, -1.00, 365.8, 322.4)">i</text><text xml:space="preserve" font-family="Helvetica-Light,Helvetica" font-size="37.2" fill="#D5D5D5" transform="matrix(1.00, 0.00, -0.00, -1.00, 374.0, 322.4)">l</text><text xml:space="preserve" font-family="Helvetica-Light,Helvetica" font-size="37.2" fill="#D5D5D5" transform="matrix(1.00, 0.00, -0.00, -1.00, 382.3, 322.4)">e</text><text xml:space="preserve" font-family="Helvetica-Light,Helvetica" font-size="37.2" fill="#D5D5D5" transform="matrix(1.00, 0.00, -0.00, -1.00, 403.0, 322.4)"> </text><text xml:space="preserve" font-family="Helvetica-Light,Helvetica" font-size="37.2" fill="#D5D5D5" transform="matrix(1.00, 0.00, -0.00, -1.00, 413.4, 322.4)">w</text><text xml:space="preserve" font-family="Helvetica-Light,Helvetica" font-size="37.2" fill="#D5D5D5" transform="matrix(1.00, 0.00, -0.00, -1.00, 440.3, 322.4)">e</text><text xml:space="preserve" font-family="Helvetica-Light,Helvetica" font-size="37.2" fill="#D5D5D5" transform="matrix(1.00, 0.00, -0.00, -1.00, 461.0, 322.4)">b</text><text xml:space="preserve" font-family="Helvetica-Light,Helvetica" font-size="37.2" fill="#D5D5D5" transform="matrix(1.00, 0.00, -0.00, -1.00, 483.7, 322.4)"> </text><text xml:space="preserve" font-family="Helvetica-Light,Helvetica" font-size="37.2" fill="#D5D5D5" transform="matrix(1.00, 0.00, -0.00, -1.00, 494.1, 322.4)">a</text><text xml:space="preserve" font-family="Helvetica-Light,Helvetica" font-size="37.2" fill="#D5D5D5" transform="matrix(1.00, 0.00, -0.00, -1.00, 514.8, 322.4)">p</text><text xml:space="preserve" font-family="Helvetica-Light,Helvetica" font-size="37.2" fill="#D5D5D5" transform="matrix(1.00, 0.00, -0.00, -1.00, 537.5, 322.4)">p</text><text xml:space="preserve" font-family="Helvetica-Light,Helvetica" font-size="37.2" fill="#D5D5D5" transform="matrix(1.00, 0.00, -0.00, -1.00, 560.3, 322.4)"> </text><text xml:space="preserve" font-family="Helvetica-Light,Helvetica" font-size="37.2" fill="#D5D5D5" transform="matrix(1.00, 0.00, -0.00, -1.00, 570.6, 322.4)">o</text><text xml:space="preserve" font-family="Helvetica-Light,Helvetica" font-size="37.2" fill="#D5D5D5" transform="matrix(1.00, 0.00, -0.00, -1.00, 591.3, 322.4)">f</text><text xml:space="preserve" font-family="Helvetica-Light,Helvetica" font-size="37.2" fill="#D5D5D5" transform="matrix(1.00, 0.00, -0.00, -1.00, 601.7, 322.4)"> </text><text xml:space="preserve" font-family="Helvetica-Light,Helvetica" font-size="37.2" fill="#D5D5D5" transform="matrix(1.00, 0.00, -0.00, -1.00, 612.0, 322.4)">i</text><text xml:space="preserve" font-family="Helvetica-Light,Helvetica" font-size="37.2" fill="#D5D5D5" transform="matrix(1.00, 0.00, -0.00, -1.00, 620.3, 322.4)">t</text><text xml:space="preserve" font-family="Helvetica-Light,Helvetica" font-size="37.2" fill="#D5D5D5" transform="matrix(1.00, 0.00, -0.00, -1.00, 630.7, 322.4)">s</text><text xml:space="preserve" font-family="Helvetica-Light,Helvetica" font-size="37.2" fill="#D5D5D5" transform="matrix(1.00, 0.00, -0.00, -1.00, 649.3, 322.4)"> </text><text xml:space="preserve" font-family="Helvetica-Light,Helvetica" font-size="37.2" fill="#D5D5D5" transform="matrix(1.00, 0.00, -0.00, -1.00, 659.6, 322.4)">k</text><text xml:space="preserve" font-family="Helvetica-Light,Helvetica" font-size="37.2" fill="#D5D5D5" transform="matrix(1.00, 0.00, -0.00, -1.00, 678.3, 322.4)">i</text><text xml:space="preserve" font-family="Helvetica-Light,Helvetica" font-size="37.2" fill="#D5D5D5" transform="matrix(1.00, 0.00, -0.00, -1.00, 686.5, 322.4)">n</text><text xml:space="preserve" font-family="Helvetica-Light,Helvetica" font-size="37.2" fill="#D5D5D5" transform="matrix(1.00, 0.00, -0.00, -1.00, 707.2, 322.4)">d</text><text xml:space="preserve" font-family="Helvetica-Light,Helvetica" font-size="27.9" fill="#D5D5D5" transform="matrix(1.00, 0.00, -0.00, -1.00, 176.3, 239.1)">•</text><text xml:space="preserve" font-family="Helvetica-Light,Helvetica" font-size="37.2" fill="#D5D5D5" transform="matrix(1.00, 0.00, -0.00, -1.00, 210.6, 235.2)">C</text><text xml:space="preserve" font-family="Helvetica-Light,Helvetica" font-size="37.2" fill="#D5D5D5" transform="matrix(1.00, 0.00, -0.00, -1.00, 237.5, 235.2)">l</text><text xml:space="preserve" font-family="Helvetica-Light,Helvetica" font-size="37.2" fill="#D5D5D5" transform="matrix(1.00, 0.00, -0.00, -1.00, 245.8, 235.2)">e</text><text xml:space="preserve" font-family="Helvetica-Light,Helvetica" font-size="37.2" fill="#D5D5D5" transform="matrix(1.00, 0.00, -0.00, -1.00, 266.5, 235.2)">v</text><text xml:space="preserve" font-family="Helvetica-Light,Helvetica" font-size="37.2" fill="#D5D5D5" transform="matrix(1.00, 0.00, -0.00, -1.00, 285.1, 235.2)">e</text><text xml:space="preserve" font-family="Helvetica-Light,Helvetica" font-size="37.2" fill="#D5D5D5" transform="matrix(1.00, 0.00, -0.00, -1.00, 305.8, 235.2)">l</text><text xml:space="preserve" font-family="Helvetica-Light,Helvetica" font-size="37.2" fill="#D5D5D5" transform="matrix(1.00, 0.00, -0.00, -1.00, 314.1, 235.2)">a</text><text xml:space="preserve" font-family="Helvetica-Light,Helvetica" font-size="37.2" fill="#D5D5D5" transform="matrix(1.00, 0.00, -0.00, -1.00, 334.8, 235.2)">n</text><text xml:space="preserve" font-family="Helvetica-Light,Helvetica" font-size="37.2" fill="#D5D5D5" transform="matrix(1.00, 0.00, -0.00, -1.00, 355.5, 235.2)">d</text><text xml:space="preserve" font-family="Helvetica-Light,Helvetica" font-size="37.2" fill="#D5D5D5" transform="matrix(1.00, 0.00, -0.00, -1.00, 378.2, 235.2)"> </text><text xml:space="preserve" font-family="Helvetica-Light,Helvetica" font-size="37.2" fill="#D5D5D5" transform="matrix(1.00, 0.00, -0.00, -1.00, 388.6, 235.2)">M</text><text xml:space="preserve" font-family="Helvetica-Light,Helvetica" font-size="37.2" fill="#D5D5D5" transform="matrix(1.00, 0.00, -0.00, -1.00, 419.6, 235.2)">e</text><text xml:space="preserve" font-family="Helvetica-Light,Helvetica" font-size="37.2" fill="#D5D5D5" transform="matrix(1.00, 0.00, -0.00, -1.00, 440.3, 235.2)">t</text><text xml:space="preserve" font-family="Helvetica-Light,Helvetica" font-size="37.2" fill="#D5D5D5" transform="matrix(1.00, 0.00, -0.00, -1.00, 450.7, 235.2)">r</text><text xml:space="preserve" font-family="Helvetica-Light,Helvetica" font-size="37.2" fill="#D5D5D5" transform="matrix(1.00, 0.00, -0.00, -1.00, 462.4, 235.2)">o</text><text xml:space="preserve" font-family="Helvetica-Light,Helvetica" font-size="37.2" fill="#D5D5D5" transform="matrix(1.00, 0.00, -0.00, -1.00, 483.1, 235.2)">p</text><text xml:space="preserve" font-family="Helvetica-Light,Helvetica" font-size="37.2" fill="#D5D5D5" transform="matrix(1.00, 0.00, -0.00, -1.00, 505.8, 235.2)">a</text><text xml:space="preserve" font-family="Helvetica-Light,Helvetica" font-size="37.2" fill="#D5D5D5" transform="matrix(1.00, 0.00, -0.00, -1.00, 526.5, 235.2)">r</text><text xml:space="preserve" font-family="Helvetica-Light,Helvetica" font-size="37.2" fill="#D5D5D5" transform="matrix(1.00, 0.00, -0.00, -1.00, 538.9, 235.2)">k</text><text xml:space="preserve" font-family="Helvetica-Light,Helvetica" font-size="37.2" fill="#D5D5D5" transform="matrix(1.00, 0.00, -0.00, -1.00, 557.6, 235.2)">s</text><text xml:space="preserve" font-family="Helvetica-Light,Helvetica" font-size="37.2" fill="#D5D5D5" transform="matrix(1.00, 0.00, -0.00, -1.00, 576.2, 235.2)"> </text><text xml:space="preserve" font-family="Helvetica-Light,Helvetica" font-size="37.2" fill="#D5D5D5" transform="matrix(1.00, 0.00, -0.00, -1.00, 586.5, 235.2)">ﬁ</text><text xml:space="preserve" font-family="Helvetica-Light,Helvetica" font-size="37.2" fill="#D5D5D5" transform="matrix(1.00, 0.00, -0.00, -1.00, 605.2, 235.2)">r</text><text xml:space="preserve" font-family="Helvetica-Light,Helvetica" font-size="37.2" fill="#D5D5D5" transform="matrix(1.00, 0.00, -0.00, -1.00, 617.6, 235.2)">s</text><text xml:space="preserve" font-family="Helvetica-Light,Helvetica" font-size="37.2" fill="#D5D5D5" transform="matrix(1.00, 0.00, -0.00, -1.00, 636.2, 235.2)">t</text><text xml:space="preserve" font-family="Helvetica-Light,Helvetica" font-size="37.2" fill="#D5D5D5" transform="matrix(1.00, 0.00, -0.00, -1.00, 646.5, 235.2)"> </text><text xml:space="preserve" font-family="Helvetica-Light,Helvetica" font-size="37.2" fill="#D5D5D5" transform="matrix(1.00, 0.00, -0.00, -1.00, 210.6, 189.2)">m</text><text xml:space="preserve" font-family="Helvetica-Light,Helvetica" font-size="37.2" fill="#D5D5D5" transform="matrix(1.00, 0.00, -0.00, -1.00, 241.6, 189.2)">o</text><text xml:space="preserve" font-family="Helvetica-Light,Helvetica" font-size="37.2" fill="#D5D5D5" transform="matrix(1.00, 0.00, -0.00, -1.00, 262.3, 189.2)">b</text><text xml:space="preserve" font-family="Helvetica-Light,Helvetica" font-size="37.2" fill="#D5D5D5" transform="matrix(1.00, 0.00, -0.00, -1.00, 285.1, 189.2)">i</text><text xml:space="preserve" font-family="Helvetica-Light,Helvetica" font-size="37.2" fill="#D5D5D5" transform="matrix(1.00, 0.00, -0.00, -1.00, 293.3, 189.2)">l</text><text xml:space="preserve" font-family="Helvetica-Light,Helvetica" font-size="37.2" fill="#D5D5D5" transform="matrix(1.00, 0.00, -0.00, -1.00, 301.6, 189.2)">e</text><text xml:space="preserve" font-family="Helvetica-Light,Helvetica" font-size="37.2" fill="#D5D5D5" transform="matrix(1.00, 0.00, -0.00, -1.00, 322.3, 189.2)"> </text><text xml:space="preserve" font-family="Helvetica-Light,Helvetica" font-size="37.2" fill="#D5D5D5" transform="matrix(1.00, 0.00, -0.00, -1.00, 332.7, 189.2)">e</text><text xml:space="preserve" font-family="Helvetica-Light,Helvetica" font-size="37.2" fill="#D5D5D5" transform="matrix(1.00, 0.00, -0.00, -1.00, 353.4, 189.2)">n</text><text xml:space="preserve" font-family="Helvetica-Light,Helvetica" font-size="37.2" fill="#D5D5D5" transform="matrix(1.00, 0.00, -0.00, -1.00, 374.1, 189.2)">a</text><text xml:space="preserve" font-family="Helvetica-Light,Helvetica" font-size="37.2" fill="#D5D5D5" transform="matrix(1.00, 0.00, -0.00, -1.00, 394.8, 189.2)">b</text><text xml:space="preserve" font-family="Helvetica-Light,Helvetica" font-size="37.2" fill="#D5D5D5" transform="matrix(1.00, 0.00, -0.00, -1.00, 417.5, 189.2)">l</text><text xml:space="preserve" font-family="Helvetica-Light,Helvetica" font-size="37.2" fill="#D5D5D5" transform="matrix(1.00, 0.00, -0.00, -1.00, 425.8, 189.2)">e</text><text xml:space="preserve" font-family="Helvetica-Light,Helvetica" font-size="37.2" fill="#D5D5D5" transform="matrix(1.00, 0.00, -0.00, -1.00, 446.5, 189.2)">d</text><text xml:space="preserve" font-family="Helvetica-Light,Helvetica" font-size="37.2" fill="#D5D5D5" transform="matrix(1.00, 0.00, -0.00, -1.00, 469.3, 189.2)"> </text><text xml:space="preserve" font-family="Helvetica-Light,Helvetica" font-size="37.2" fill="#D5D5D5" transform="matrix(1.00, 0.00, -0.00, -1.00, 479.6, 189.2)">w</text><text xml:space="preserve" font-family="Helvetica-Light,Helvetica" font-size="37.2" fill="#D5D5D5" transform="matrix(1.00, 0.00, -0.00, -1.00, 506.5, 189.2)">e</text><text xml:space="preserve" font-family="Helvetica-Light,Helvetica" font-size="37.2" fill="#D5D5D5" transform="matrix(1.00, 0.00, -0.00, -1.00, 527.2, 189.2)">b</text><text xml:space="preserve" font-family="Helvetica-Light,Helvetica" font-size="37.2" fill="#D5D5D5" transform="matrix(1.00, 0.00, -0.00, -1.00, 550.0, 189.2)"> </text><text xml:space="preserve" font-family="Helvetica-Light,Helvetica" font-size="37.2" fill="#D5D5D5" transform="matrix(1.00, 0.00, -0.00, -1.00, 560.3, 189.2)">p</text><text xml:space="preserve" font-family="Helvetica-Light,Helvetica" font-size="37.2" fill="#D5D5D5" transform="matrix(1.00, 0.00, -0.00, -1.00, 583.1, 189.2)">a</text><text xml:space="preserve" font-family="Helvetica-Light,Helvetica" font-size="37.2" fill="#D5D5D5" transform="matrix(1.00, 0.00, -0.00, -1.00, 603.8, 189.2)">g</text><text xml:space="preserve" font-family="Helvetica-Light,Helvetica" font-size="37.2" fill="#D5D5D5" transform="matrix(1.00, 0.00, -0.00, -1.00, 626.5, 189.2)">e</text><text xml:space="preserve" font-family="Helvetica-Light,Helvetica" font-size="27.9" fill="#D5D5D5" transform="matrix(1.00, 0.00, -0.00, -1.00, 176.3, 105.9)">•</text><text xml:space="preserve" font-family="Helvetica-Light,Helvetica" font-size="37.2" fill="#D5D5D5" transform="matrix(1.00, 0.00, -0.00, -1.00, 210.6, 102.1)">&gt;</text><text xml:space="preserve" font-family="Helvetica-Light,Helvetica" font-size="37.2" fill="#D5D5D5" transform="matrix(1.00, 0.00, -0.00, -1.00, 235.2, 102.1)"> </text><text xml:space="preserve" font-family="Helvetica-Light,Helvetica" font-size="37.2" fill="#D5D5D5" transform="matrix(1.00, 0.00, -0.00, -1.00, 245.5, 102.1)">1</text><text xml:space="preserve" font-family="Helvetica-Light,Helvetica" font-size="37.2" fill="#D5D5D5" transform="matrix(1.00, 0.00, -0.00, -1.00, 266.2, 102.1)">0</text><text xml:space="preserve" font-family="Helvetica-Light,Helvetica" font-size="37.2" fill="#D5D5D5" transform="matrix(1.00, 0.00, -0.00, -1.00, 286.9, 102.1)">k</text><text xml:space="preserve" font-family="Helvetica-Light,Helvetica" font-size="37.2" fill="#D5D5D5" transform="matrix(1.00, 0.00, -0.00, -1.00, 305.6, 102.1)"> </text><text xml:space="preserve" font-family="Helvetica-Light,Helvetica" font-size="37.2" fill="#D5D5D5" transform="matrix(1.00, 0.00, -0.00, -1.00, 315.9, 102.1)">u</text><text xml:space="preserve" font-family="Helvetica-Light,Helvetica" font-size="37.2" fill="#D5D5D5" transform="matrix(1.00, 0.00, -0.00, -1.00, 336.6, 102.1)">n</text><text xml:space="preserve" font-family="Helvetica-Light,Helvetica" font-size="37.2" fill="#D5D5D5" transform="matrix(1.00, 0.00, -0.00, -1.00, 357.3, 102.1)">i</text><text xml:space="preserve" font-family="Helvetica-Light,Helvetica" font-size="37.2" fill="#D5D5D5" transform="matrix(1.00, 0.00, -0.00, -1.00, 365.6, 102.1)">q</text><text xml:space="preserve" font-family="Helvetica-Light,Helvetica" font-size="37.2" fill="#D5D5D5" transform="matrix(1.00, 0.00, -0.00, -1.00, 388.3, 102.1)">u</text><text xml:space="preserve" font-family="Helvetica-Light,Helvetica" font-size="37.2" fill="#D5D5D5" transform="matrix(1.00, 0.00, -0.00, -1.00, 409.1, 102.1)">e</text><text xml:space="preserve" font-family="Helvetica-Light,Helvetica" font-size="37.2" fill="#D5D5D5" transform="matrix(1.00, 0.00, -0.00, -1.00, 429.8, 102.1)"> </text><text xml:space="preserve" font-family="Helvetica-Light,Helvetica" font-size="37.2" fill="#D5D5D5" transform="matrix(1.00, 0.00, -0.00, -1.00, 440.1, 102.1)">u</text><text xml:space="preserve" font-family="Helvetica-Light,Helvetica" font-size="37.2" fill="#D5D5D5" transform="matrix(1.00, 0.00, -0.00, -1.00, 460.8, 102.1)">s</text><text xml:space="preserve" font-family="Helvetica-Light,Helvetica" font-size="37.2" fill="#D5D5D5" transform="matrix(1.00, 0.00, -0.00, -1.00, 479.4, 102.1)">e</text><text xml:space="preserve" font-family="Helvetica-Light,Helvetica" font-size="37.2" fill="#D5D5D5" transform="matrix(1.00, 0.00, -0.00, -1.00, 500.1, 102.1)">r</text><text xml:space="preserve" font-family="Helvetica-Light,Helvetica" font-size="37.2" fill="#D5D5D5" transform="matrix(1.00, 0.00, -0.00, -1.00, 512.5, 102.1)">s</text></g></svg>