<?xml version="1.0" encoding="UTF-8" standalone="no"?><svg xmlns="http://www.w3.org/2000/svg" xmlns:xlink="http://www.w3.org/1999/xlink" clip-rule="evenodd" stroke-miterlimit="10" viewBox="0 0 1024 768"><desc>SVG generated by Keynote</desc><defs></defs><g transform="matrix(1.00, 0.00, -0.00, -1.00, 0.0, 768.0)"><path d="M 0.0 768.0 L 1024.0 768.0 L 1024.0 0.0 L 0.0 0.0 Z M 0.0 768.0 " fill="#000000"></path><image xlink:href="AE3B8823BCB94289D565C9ACADDA37A2.png" width="1024.00" height="768.00" transform="matrix(1.00, 0.00, -0.00, -1.00, 0.0, 768.0)"></image><text xml:space="preserve" font-family="HelveticaLTStd-Blk,Helvetica LT Std" font-weight="bold" font-size="71.2" fill="#D5D5D5" transform="matrix(1.00, 0.00, -0.00, -1.00, 152.3, 690.3)">C</text><text xml:space="preserve" font-family="HelveticaLTStd-Blk,Helvetica LT Std" font-weight="bold" font-size="71.2" fill="#D5D5D5" transform="matrix(1.00, 0.00, -0.00, -1.00, 207.7, 690.3)">l</text><text xml:space="preserve" font-family="HelveticaLTStd-Blk,Helvetica LT Std" font-weight="bold" font-size="71.2" fill="#D5D5D5" transform="matrix(1.00, 0.00, -0.00, -1.00, 231.4, 690.3)">e</text><text xml:space="preserve" font-family="HelveticaLTStd-Blk,Helvetica LT Std" font-weight="bold" font-size="71.2" fill="#D5D5D5" transform="matrix(1.00, 0.00, -0.00, -1.00, 278.9, 690.3)">v</text><text xml:space="preserve" font-family="HelveticaLTStd-Blk,Helvetica LT Std" font-weight="bold" font-size="71.2" fill="#D5D5D5" transform="matrix(1.00, 0.00, -0.00, -1.00, 322.4, 690.3)">e</text><text xml:space="preserve" font-family="HelveticaLTStd-Blk,Helvetica LT Std" font-weight="bold" font-size="71.2" fill="#D5D5D5" transform="matrix(1.00, 0.00, -0.00, -1.00, 369.9, 690.3)">l</text><text xml:space="preserve" font-family="HelveticaLTStd-Blk,Helvetica LT Std" font-weight="bold" font-size="71.2" fill="#D5D5D5" transform="matrix(1.00, 0.00, -0.00, -1.00, 393.6, 690.3)">a</text><text xml:space="preserve" font-family="HelveticaLTStd-Blk,Helvetica LT Std" font-weight="bold" font-size="71.2" fill="#D5D5D5" transform="matrix(1.00, 0.00, -0.00, -1.00, 441.1, 690.3)">n</text><text xml:space="preserve" font-family="HelveticaLTStd-Blk,Helvetica LT Std" font-weight="bold" font-size="71.2" fill="#D5D5D5" transform="matrix(1.00, 0.00, -0.00, -1.00, 488.6, 690.3)">d</text><text xml:space="preserve" font-family="HelveticaLTStd-Blk,Helvetica LT Std" font-weight="bold" font-size="71.2" fill="#D5D5D5" transform="matrix(1.00, 0.00, -0.00, -1.00, 536.1, 690.3)"> </text><text xml:space="preserve" font-family="HelveticaLTStd-Blk,Helvetica LT Std" font-weight="bold" font-size="71.2" fill="#D5D5D5" transform="matrix(1.00, 0.00, -0.00, -1.00, 559.8, 690.3)">M</text><text xml:space="preserve" font-family="HelveticaLTStd-Blk,Helvetica LT Std" font-weight="bold" font-size="71.2" fill="#D5D5D5" transform="matrix(1.00, 0.00, -0.00, -1.00, 627.0, 690.3)">e</text><text xml:space="preserve" font-family="HelveticaLTStd-Blk,Helvetica LT Std" font-weight="bold" font-size="71.2" fill="#D5D5D5" transform="matrix(1.00, 0.00, -0.00, -1.00, 674.5, 690.3)">t</text><text xml:space="preserve" font-family="HelveticaLTStd-Blk,Helvetica LT Std" font-weight="bold" font-size="71.2" fill="#D5D5D5" transform="matrix(1.00, 0.00, -0.00, -1.00, 706.1, 690.3)">r</text><text xml:space="preserve" font-family="HelveticaLTStd-Blk,Helvetica LT Std" font-weight="bold" font-size="71.2" fill="#D5D5D5" transform="matrix(1.00, 0.00, -0.00, -1.00, 736.4, 690.3)">o</text><text xml:space="preserve" font-family="HelveticaLTStd-Blk,Helvetica LT Std" font-weight="bold" font-size="71.2" fill="#D5D5D5" transform="matrix(1.00, 0.00, -0.00, -1.00, 783.9, 690.3)">p</text><text xml:space="preserve" font-family="HelveticaLTStd-Blk,Helvetica LT Std" font-weight="bold" font-size="71.2" fill="#D5D5D5" transform="matrix(1.00, 0.00, -0.00, -1.00, 831.4, 690.3)">a</text><text xml:space="preserve" font-family="HelveticaLTStd-Blk,Helvetica LT Std" font-weight="bold" font-size="71.2" fill="#D5D5D5" transform="matrix(1.00, 0.00, -0.00, -1.00, 878.9, 690.3)">r</text><text xml:space="preserve" font-family="HelveticaLTStd-Blk,Helvetica LT Std" font-weight="bold" font-size="71.2" fill="#D5D5D5" transform="matrix(1.00, 0.00, -0.00, -1.00, 910.5, 690.3)">k</text><text xml:space="preserve" font-family="HelveticaLTStd-Blk,Helvetica LT Std" font-weight="bold" font-size="71.2" fill="#D5D5D5" transform="matrix(1.00, 0.00, -0.00, -1.00, 958.0, 690.3)">s</text><text xml:space="preserve" font-family="HelveticaLTStd-Blk,Helvetica LT Std" font-weight="bold" font-size="71.2" fill="#D5D5D5" transform="matrix(1.00, 0.00, -0.00, -1.00, 1001.5, 690.3)"> </text><text xml:space="preserve" font-family="HelveticaLTStd-Blk,Helvetica LT Std" font-weight="bold" font-size="71.2" fill="#D5D5D5" transform="matrix(1.00, 0.00, -0.00, -1.00, 382.4, 605.3)">T</text><text xml:space="preserve" font-family="HelveticaLTStd-Blk,Helvetica LT Std" font-weight="bold" font-size="71.2" fill="#D5D5D5" transform="matrix(1.00, 0.00, -0.00, -1.00, 427.3, 605.3)">r</text><text xml:space="preserve" font-family="HelveticaLTStd-Blk,Helvetica LT Std" font-weight="bold" font-size="71.2" fill="#D5D5D5" transform="matrix(1.00, 0.00, -0.00, -1.00, 458.9, 605.3)">a</text><text xml:space="preserve" font-family="HelveticaLTStd-Blk,Helvetica LT Std" font-weight="bold" font-size="71.2" fill="#D5D5D5" transform="matrix(1.00, 0.00, -0.00, -1.00, 506.4, 605.3)">i</text><text xml:space="preserve" font-family="HelveticaLTStd-Blk,Helvetica LT Std" font-weight="bold" font-size="71.2" fill="#D5D5D5" transform="matrix(1.00, 0.00, -0.00, -1.00, 530.1, 605.3)">l</text><text xml:space="preserve" font-family="HelveticaLTStd-Blk,Helvetica LT Std" font-weight="bold" font-size="71.2" fill="#D5D5D5" transform="matrix(1.00, 0.00, -0.00, -1.00, 553.8, 605.3)">s</text><text xml:space="preserve" font-family="HelveticaLTStd-Blk,Helvetica LT Std" font-weight="bold" font-size="71.2" fill="#D5D5D5" transform="matrix(1.00, 0.00, -0.00, -1.00, 597.3, 605.3)"> </text><text xml:space="preserve" font-family="HelveticaLTStd-Blk,Helvetica LT Std" font-weight="bold" font-size="71.2" fill="#D5D5D5" transform="matrix(1.00, 0.00, -0.00, -1.00, 621.0, 605.3)">A</text><text xml:space="preserve" font-family="HelveticaLTStd-Blk,Helvetica LT Std" font-weight="bold" font-size="71.2" fill="#D5D5D5" transform="matrix(1.00, 0.00, -0.00, -1.00, 676.4, 605.3)">p</text><text xml:space="preserve" font-family="HelveticaLTStd-Blk,Helvetica LT Std" font-weight="bold" font-size="71.2" fill="#D5D5D5" transform="matrix(1.00, 0.00, -0.00, -1.00, 723.9, 605.3)">p</text></g></svg>