<?xml version="1.0" encoding="UTF-8" standalone="no"?><svg xmlns="http://www.w3.org/2000/svg" xmlns:xlink="http://www.w3.org/1999/xlink" clip-rule="evenodd" stroke-miterlimit="10" viewBox="0 0 1024 768"><desc>SVG generated by Keynote</desc><defs></defs><g transform="matrix(1.00, 0.00, -0.00, -1.00, 0.0, 768.0)"><path d="M 0.0 768.0 L 1024.0 768.0 L 1024.0 0.0 L 0.0 0.0 Z M 0.0 768.0 " fill="#000000"></path><g><clipPath id="clip0x600000aab7c0"><path d="M 599.0 377.0 L 1019.0 377.0 L 1019.0 70.0 L 599.0 70.0 Z M 599.1 377.0 "></path></clipPath><g clip-path="url(#clip0x600000aab7c0)"><image xlink:href="../../C823CD46-6B23-4FF8-B771-284A73E25344/assets/C49F3859437EC31E10807F2BBDB51EDC.png" width="1242.00" height="2208.00" transform="matrix(0.34, 0.00, -0.00, -0.34, 599.0, 597.0)"></image></g></g><g><clipPath id="clip0x600000ab2660"><path d="M 599.0 718.0 L 1019.0 718.0 L 1019.0 411.0 L 599.0 411.0 Z M 599.1 718.0 "></path></clipPath><g clip-path="url(#clip0x600000ab2660)"><image xlink:href="../../0A5579FF-1430-4701-9ABB-6933D50FD1C8/assets/F20F5589920C44EDBB83EF4C38EB69C9.png" width="475.00" height="307.00" transform="matrix(1.00, 0.00, -0.00, -1.00, 572.0, 718.0)"></image></g></g><g><clipPath id="clip0x608000caca80"><path d="M 144.0 718.0 L 564.0 718.0 L 564.0 70.0 L 144.0 70.0 Z M 144.1 718.0 "></path></clipPath><g clip-path="url(#clip0x608000caca80)"><image xlink:href="../../C823CD46-6B23-4FF8-B771-284A73E25344/assets/29AADD5EEF4C48C69F72BAD51FFCC34E.jpeg" width="864.00" height="648.00" transform="matrix(1.00, 0.00, -0.00, -1.00, -78.0, 718.0)"></image></g></g><g><clipPath id="clip0x608000cbb0c0"><path d="M 0.0 768.0 L 140.0 768.0 L 140.0 0.0 L 0.0 0.0 Z M 0.0 768.0 "></path></clipPath><g clip-path="url(#clip0x608000cbb0c0)"><image xlink:href="../../0A5579FF-1430-4701-9ABB-6933D50FD1C8/assets/AEFE3146F0C36D4704EB2055BACC19DB.jpeg" width="1024.00" height="768.00" transform="matrix(1.00, 0.00, -0.00, -1.00, 0.0, 768.0)"></image></g></g></g></svg>