<?xml version="1.0" encoding="UTF-8" standalone="no"?><svg xmlns="http://www.w3.org/2000/svg" xmlns:xlink="http://www.w3.org/1999/xlink" clip-rule="evenodd" stroke-miterlimit="10" viewBox="0 0 791 34"><desc>SVG generated by Keynote</desc><defs></defs><g transform="matrix(1.00, 0.00, -0.00, -1.00, 0.0, 34.0)"><text xml:space="preserve" font-family="Helvetica-Light,Helvetica" font-size="28.5" fill="#D5D5D5" transform="matrix(1.00, 0.00, -0.00, -1.00, 0.3, 8.1)">•</text><text xml:space="preserve" font-family="Helvetica-Light,Helvetica" font-size="38.0" fill="#D5D5D5" transform="matrix(1.00, 0.00, -0.00, -1.00, 35.3, 4.7)">F</text><text xml:space="preserve" font-family="Helvetica-Light,Helvetica" font-size="38.0" fill="#D5D5D5" transform="matrix(1.00, 0.00, -0.00, -1.00, 56.4, 4.7)">I</text><text xml:space="preserve" font-family="Helvetica-Light,Helvetica" font-size="38.0" fill="#D5D5D5" transform="matrix(1.00, 0.00, -0.00, -1.00, 67.0, 4.7)">N</text><text xml:space="preserve" font-family="Helvetica-Light,Helvetica" font-size="38.0" fill="#D5D5D5" transform="matrix(1.00, 0.00, -0.00, -1.00, 94.4, 4.7)">D</text><text xml:space="preserve" font-family="Helvetica-Light,Helvetica" font-size="38.0" fill="#D5D5D5" transform="matrix(1.00, 0.00, -0.00, -1.00, 121.9, 4.7)"> </text><text xml:space="preserve" font-family="Helvetica-Light,Helvetica" font-size="38.0" fill="#D5D5D5" transform="matrix(1.00, 0.00, -0.00, -1.00, 132.4, 4.7)">f</text><text xml:space="preserve" font-family="Helvetica-Light,Helvetica" font-size="38.0" fill="#D5D5D5" transform="matrix(1.00, 0.00, -0.00, -1.00, 143.0, 4.7)">u</text><text xml:space="preserve" font-family="Helvetica-Light,Helvetica" font-size="38.0" fill="#D5D5D5" transform="matrix(1.00, 0.00, -0.00, -1.00, 164.1, 4.7)">n</text><text xml:space="preserve" font-family="Helvetica-Light,Helvetica" font-size="38.0" fill="#D5D5D5" transform="matrix(1.00, 0.00, -0.00, -1.00, 185.3, 4.7)">c</text><text xml:space="preserve" font-family="Helvetica-Light,Helvetica" font-size="38.0" fill="#D5D5D5" transform="matrix(1.00, 0.00, -0.00, -1.00, 206.4, 4.7)">t</text><text xml:space="preserve" font-family="Helvetica-Light,Helvetica" font-size="38.0" fill="#D5D5D5" transform="matrix(1.00, 0.00, -0.00, -1.00, 216.9, 4.7)">i</text><text xml:space="preserve" font-family="Helvetica-Light,Helvetica" font-size="38.0" fill="#D5D5D5" transform="matrix(1.00, 0.00, -0.00, -1.00, 225.4, 4.7)">o</text><text xml:space="preserve" font-family="Helvetica-Light,Helvetica" font-size="38.0" fill="#D5D5D5" transform="matrix(1.00, 0.00, -0.00, -1.00, 246.5, 4.7)">n</text><text xml:space="preserve" font-family="Helvetica-Light,Helvetica" font-size="38.0" fill="#D5D5D5" transform="matrix(1.00, 0.00, -0.00, -1.00, 267.6, 4.7)"> </text><text xml:space="preserve" font-family="Helvetica-Light,Helvetica" font-size="38.0" fill="#D5D5D5" transform="matrix(1.00, 0.00, -0.00, -1.00, 278.2, 4.7)">f</text><text xml:space="preserve" font-family="Helvetica-Light,Helvetica" font-size="38.0" fill="#D5D5D5" transform="matrix(1.00, 0.00, -0.00, -1.00, 288.8, 4.7)">o</text><text xml:space="preserve" font-family="Helvetica-Light,Helvetica" font-size="38.0" fill="#D5D5D5" transform="matrix(1.00, 0.00, -0.00, -1.00, 309.9, 4.7)">r</text><text xml:space="preserve" font-family="Helvetica-Light,Helvetica" font-size="38.0" fill="#D5D5D5" transform="matrix(1.00, 0.00, -0.00, -1.00, 322.5, 4.7)"> </text><text xml:space="preserve" font-family="Helvetica-Light,Helvetica" font-size="38.0" fill="#D5D5D5" transform="matrix(1.00, 0.00, -0.00, -1.00, 333.1, 4.7)">T</text><text xml:space="preserve" font-family="Helvetica-Light,Helvetica" font-size="38.0" fill="#D5D5D5" transform="matrix(1.00, 0.00, -0.00, -1.00, 350.7, 4.7)">r</text><text xml:space="preserve" font-family="Helvetica-Light,Helvetica" font-size="38.0" fill="#D5D5D5" transform="matrix(1.00, 0.00, -0.00, -1.00, 363.4, 4.7)">a</text><text xml:space="preserve" font-family="Helvetica-Light,Helvetica" font-size="38.0" fill="#D5D5D5" transform="matrix(1.00, 0.00, -0.00, -1.00, 384.5, 4.7)">i</text><text xml:space="preserve" font-family="Helvetica-Light,Helvetica" font-size="38.0" fill="#D5D5D5" transform="matrix(1.00, 0.00, -0.00, -1.00, 393.0, 4.7)">l</text><text xml:space="preserve" font-family="Helvetica-Light,Helvetica" font-size="38.0" fill="#D5D5D5" transform="matrix(1.00, 0.00, -0.00, -1.00, 401.4, 4.7)">s</text><text xml:space="preserve" font-family="Helvetica-Light,Helvetica" font-size="38.0" fill="#D5D5D5" transform="matrix(1.00, 0.00, -0.00, -1.00, 420.4, 4.7)"> </text><text xml:space="preserve" font-family="Helvetica-Light,Helvetica" font-size="38.0" fill="#D5D5D5" transform="matrix(1.00, 0.00, -0.00, -1.00, 431.0, 4.7)">a</text><text xml:space="preserve" font-family="Helvetica-Light,Helvetica" font-size="38.0" fill="#D5D5D5" transform="matrix(1.00, 0.00, -0.00, -1.00, 452.1, 4.7)">n</text><text xml:space="preserve" font-family="Helvetica-Light,Helvetica" font-size="38.0" fill="#D5D5D5" transform="matrix(1.00, 0.00, -0.00, -1.00, 473.2, 4.7)">d</text><text xml:space="preserve" font-family="Helvetica-Light,Helvetica" font-size="38.0" fill="#D5D5D5" transform="matrix(1.00, 0.00, -0.00, -1.00, 496.4, 4.7)"> </text><text xml:space="preserve" font-family="Helvetica-Light,Helvetica" font-size="38.0" fill="#D5D5D5" transform="matrix(1.00, 0.00, -0.00, -1.00, 507.0, 4.7)">P</text><text xml:space="preserve" font-family="Helvetica-Light,Helvetica" font-size="38.0" fill="#D5D5D5" transform="matrix(1.00, 0.00, -0.00, -1.00, 530.2, 4.7)">o</text><text xml:space="preserve" font-family="Helvetica-Light,Helvetica" font-size="38.0" fill="#D5D5D5" transform="matrix(1.00, 0.00, -0.00, -1.00, 551.3, 4.7)">i</text><text xml:space="preserve" font-family="Helvetica-Light,Helvetica" font-size="38.0" fill="#D5D5D5" transform="matrix(1.00, 0.00, -0.00, -1.00, 559.8, 4.7)">n</text><text xml:space="preserve" font-family="Helvetica-Light,Helvetica" font-size="38.0" fill="#D5D5D5" transform="matrix(1.00, 0.00, -0.00, -1.00, 580.9, 4.7)">t</text><text xml:space="preserve" font-family="Helvetica-Light,Helvetica" font-size="38.0" fill="#D5D5D5" transform="matrix(1.00, 0.00, -0.00, -1.00, 591.5, 4.7)">s</text><text xml:space="preserve" font-family="Helvetica-Light,Helvetica" font-size="38.0" fill="#D5D5D5" transform="matrix(1.00, 0.00, -0.00, -1.00, 610.5, 4.7)"> </text><text xml:space="preserve" font-family="Helvetica-Light,Helvetica" font-size="38.0" fill="#D5D5D5" transform="matrix(1.00, 0.00, -0.00, -1.00, 621.0, 4.7)">o</text><text xml:space="preserve" font-family="Helvetica-Light,Helvetica" font-size="38.0" fill="#D5D5D5" transform="matrix(1.00, 0.00, -0.00, -1.00, 642.2, 4.7)">f</text><text xml:space="preserve" font-family="Helvetica-Light,Helvetica" font-size="38.0" fill="#D5D5D5" transform="matrix(1.00, 0.00, -0.00, -1.00, 652.7, 4.7)"> </text><text xml:space="preserve" font-family="Helvetica-Light,Helvetica" font-size="38.0" fill="#D5D5D5" transform="matrix(1.00, 0.00, -0.00, -1.00, 663.3, 4.7)">I</text><text xml:space="preserve" font-family="Helvetica-Light,Helvetica" font-size="38.0" fill="#D5D5D5" transform="matrix(1.00, 0.00, -0.00, -1.00, 673.9, 4.7)">n</text><text xml:space="preserve" font-family="Helvetica-Light,Helvetica" font-size="38.0" fill="#D5D5D5" transform="matrix(1.00, 0.00, -0.00, -1.00, 695.0, 4.7)">t</text><text xml:space="preserve" font-family="Helvetica-Light,Helvetica" font-size="38.0" fill="#D5D5D5" transform="matrix(1.00, 0.00, -0.00, -1.00, 705.5, 4.7)">e</text><text xml:space="preserve" font-family="Helvetica-Light,Helvetica" font-size="38.0" fill="#D5D5D5" transform="matrix(1.00, 0.00, -0.00, -1.00, 726.7, 4.7)">r</text><text xml:space="preserve" font-family="Helvetica-Light,Helvetica" font-size="38.0" fill="#D5D5D5" transform="matrix(1.00, 0.00, -0.00, -1.00, 738.6, 4.7)">e</text><text xml:space="preserve" font-family="Helvetica-Light,Helvetica" font-size="38.0" fill="#D5D5D5" transform="matrix(1.00, 0.00, -0.00, -1.00, 759.8, 4.7)">s</text><text xml:space="preserve" font-family="Helvetica-Light,Helvetica" font-size="38.0" fill="#D5D5D5" transform="matrix(1.00, 0.00, -0.00, -1.00, 778.8, 4.7)">t</text></g></svg>