<?xml version="1.0" encoding="UTF-8" standalone="no"?><svg xmlns="http://www.w3.org/2000/svg" xmlns:xlink="http://www.w3.org/1999/xlink" clip-rule="evenodd" stroke-miterlimit="10" viewBox="0 0 307 83"><desc>SVG generated by Keynote</desc><defs></defs><g transform="matrix(1.00, 0.00, -0.00, -1.00, 0.0, 83.0)"><g><clipPath id="clip0x600000cafc60"><path d="M 1.0 0.4 L 306.8 0.4 L 306.8 82.2 L 1.0 82.2 Z M 1.0 0.4 "></path></clipPath><g clip-path="url(#clip0x600000cafc60)"><path d="M 2.0 15.4 L 2.0 67.2 C 2.0 75.0 8.2 81.0 16.0 81.0 L 291.8 81.0 C 299.5 81.0 306.0 75.0 306.0 67.2 L 306.0 15.4 C 306.0 7.7 299.5 1.0 291.8 1.0 L 16.0 1.0 C 8.2 1.0 2.0 7.7 2.0 15.4 Z M 2.0 15.4 " fill="#FEFFFF"></path></g></g><g><clipPath id="clip0x600000cb0080"><path d="M 17.1 10.7 L 291.1 10.7 L 291.1 71.7 L 17.1 71.7 Z M 17.1 10.7 "></path></clipPath><g clip-path="url(#clip0x600000cb0080)"><image xlink:href="../../0A5579FF-1430-4701-9ABB-6933D50FD1C8/assets/46975168F00D3F26D0CA1DB23FF666A9.png" width="274.00" height="61.00" transform="matrix(1.00, 0.00, -0.00, -1.00, 17.0, 72.0)"></image></g></g></g></svg>